<svg id="visual" viewBox="0 0 900 600" width="900" height="600" xmlns="http://www.w3.org/2000/svg" xmlns:xlink="http://www.w3.org/1999/xlink" version="1.1"><rect x="0" y="0" width="900" height="600" fill="#001220"></rect><defs><linearGradient id="grad1_0" x1="33.3%" y1="0%" x2="100%" y2="100%"><stop offset="20%" stop-color="#fbae3c" stop-opacity="1"></stop><stop offset="80%" stop-color="#fbae3c" stop-opacity="1"></stop></linearGradient></defs><defs><linearGradient id="grad1_1" x1="33.3%" y1="0%" x2="100%" y2="100%"><stop offset="20%" stop-color="#fbae3c" stop-opacity="1"></stop><stop offset="80%" stop-color="#cc5867" stop-opacity="1"></stop></linearGradient></defs><defs><linearGradient id="grad1_2" x1="33.3%" y1="0%" x2="100%" y2="100%"><stop offset="20%" stop-color="#593762" stop-opacity="1"></stop><stop offset="80%" stop-color="#cc5867" stop-opacity="1"></stop></linearGradient></defs><defs><linearGradient id="grad1_3" x1="33.3%" y1="0%" x2="100%" y2="100%"><stop offset="20%" stop-color="#593762" stop-opacity="1"></stop><stop offset="80%" stop-color="#001220" stop-opacity="1"></stop></linearGradient></defs><defs><linearGradient id="grad2_0" x1="0%" y1="0%" x2="66.7%" y2="100%"><stop offset="20%" stop-color="#fbae3c" stop-opacity="1"></stop><stop offset="80%" stop-color="#fbae3c" stop-opacity="1"></stop></linearGradient></defs><defs><linearGradient id="grad2_1" x1="0%" y1="0%" x2="66.7%" y2="100%"><stop offset="20%" stop-color="#cc5867" stop-opacity="1"></stop><stop offset="80%" stop-color="#fbae3c" stop-opacity="1"></stop></linearGradient></defs><defs><linearGradient id="grad2_2" x1="0%" y1="0%" x2="66.7%" y2="100%"><stop offset="20%" stop-color="#cc5867" stop-opacity="1"></stop><stop offset="80%" stop-color="#593762" stop-opacity="1"></stop></linearGradient></defs><defs><linearGradient id="grad2_3" x1="0%" y1="0%" x2="66.7%" y2="100%"><stop offset="20%" stop-color="#001220" stop-opacity="1"></stop><stop offset="80%" stop-color="#593762" stop-opacity="1"></stop></linearGradient></defs><g transform="translate(900, 0)"><path d="M0 432.7C-35.1 391.8 -70.2 350.9 -109.1 335.7C-148 320.5 -190.8 331 -235.1 323.6C-279.5 316.2 -325.4 290.8 -350 254.3C-374.6 217.9 -377.8 170.3 -388 126.1C-398.2 81.8 -415.5 40.9 -432.7 0L0 0Z" fill="#232745"></path><path d="M0 324.5C-26.3 293.8 -52.6 263.2 -81.8 251.8C-111 240.4 -143.1 248.3 -176.3 242.7C-209.6 237.1 -244.1 218.1 -262.5 190.7C-281 163.4 -283.4 127.7 -291 94.6C-298.7 61.4 -311.6 30.7 -324.5 0L0 0Z" fill="#96446e"></path><path d="M0 216.3C-17.5 195.9 -35.1 175.5 -54.5 167.9C-74 160.3 -95.4 165.5 -117.6 161.8C-139.7 158.1 -162.7 145.4 -175 127.2C-187.3 108.9 -188.9 85.2 -194 63C-199.1 40.9 -207.7 20.5 -216.3 0L0 0Z" fill="#f17c53"></path><path d="M0 108.2C-8.8 97.9 -17.5 87.7 -27.3 83.9C-37 80.1 -47.7 82.8 -58.8 80.9C-69.9 79 -81.4 72.7 -87.5 63.6C-93.7 54.5 -94.5 42.6 -97 31.5C-99.6 20.5 -103.9 10.2 -108.2 0L0 0Z" fill="#fbae3c"></path></g><g transform="translate(0, 600)"><path d="M0 -432.7C36.7 -400.7 73.4 -368.7 116.8 -359.5C160.2 -350.3 210.4 -363.9 254.3 -350C298.2 -336.2 335.8 -295 342.2 -248.6C348.6 -202.3 323.9 -150.8 333.8 -108.5C343.7 -66.2 388.2 -33.1 432.7 0L0 0Z" fill="#232745"></path><path d="M0 -324.5C27.5 -300.5 55 -276.5 87.6 -269.6C120.2 -262.7 157.8 -272.9 190.7 -262.5C223.6 -252.2 251.8 -221.2 256.7 -186.5C261.5 -151.7 243 -113.1 250.4 -81.3C257.8 -49.6 291.1 -24.8 324.5 0L0 0Z" fill="#96446e"></path><path d="M0 -216.3C18.3 -200.3 36.7 -184.4 58.4 -179.7C80.1 -175.1 105.2 -181.9 127.2 -175C149.1 -168.1 167.9 -147.5 171.1 -124.3C174.3 -101.1 162 -75.4 166.9 -54.2C171.9 -33.1 194.1 -16.5 216.3 0L0 0Z" fill="#f17c53"></path><path d="M0 -108.2C9.2 -100.2 18.3 -92.2 29.2 -89.9C40.1 -87.6 52.6 -91 63.6 -87.5C74.5 -84.1 83.9 -73.7 85.6 -62.2C87.2 -50.6 81 -37.7 83.5 -27.1C85.9 -16.5 97 -8.3 108.2 0L0 0Z" fill="#fbae3c"></path></g></svg>