<svg id="visual" viewBox="0 0 900 600" width="900" height="600" xmlns="http://www.w3.org/2000/svg" xmlns:xlink="http://www.w3.org/1999/xlink" version="1.1"><rect x="0" y="0" width="900" height="600" fill="#65647C"></rect><path d="M0 389L25 395C50 401 100 413 150 422.7C200 432.3 250 439.7 300 437.3C350 435 400 423 450 415.2C500 407.3 550 403.7 600 405C650 406.3 700 412.7 750 409.3C800 406 850 393 875 386.5L900 380L900 601L875 601C850 601 800 601 750 601C700 601 650 601 600 601C550 601 500 601 450 601C400 601 350 601 300 601C250 601 200 601 150 601C100 601 50 601 25 601L0 601Z" fill="#8b7e74"></path><path d="M0 435L25 439.3C50 443.7 100 452.3 150 455.3C200 458.3 250 455.7 300 460C350 464.3 400 475.7 450 469.2C500 462.7 550 438.3 600 426.8C650 415.3 700 416.7 750 429C800 441.3 850 464.7 875 476.3L900 488L900 601L875 601C850 601 800 601 750 601C700 601 650 601 600 601C550 601 500 601 450 601C400 601 350 601 300 601C250 601 200 601 150 601C100 601 50 601 25 601L0 601Z" fill="#988a7d"></path><path d="M0 498L25 493.7C50 489.3 100 480.7 150 479.5C200 478.3 250 484.7 300 484C350 483.3 400 475.7 450 478.7C500 481.7 550 495.3 600 503.3C650 511.3 700 513.7 750 511C800 508.3 850 500.7 875 496.8L900 493L900 601L875 601C850 601 800 601 750 601C700 601 650 601 600 601C550 601 500 601 450 601C400 601 350 601 300 601C250 601 200 601 150 601C100 601 50 601 25 601L0 601Z" fill="#a49686"></path><path d="M0 492L25 496.5C50 501 100 510 150 517.2C200 524.3 250 529.7 300 524.8C350 520 400 505 450 495.8C500 486.7 550 483.3 600 488C650 492.7 700 505.3 750 513.2C800 521 850 524 875 525.5L900 527L900 601L875 601C850 601 800 601 750 601C700 601 650 601 600 601C550 601 500 601 450 601C400 601 350 601 300 601C250 601 200 601 150 601C100 601 50 601 25 601L0 601Z" fill="#b0a28e"></path><path d="M0 538L25 540C50 542 100 546 150 544.3C200 542.7 250 535.3 300 530.3C350 525.3 400 522.7 450 521.2C500 519.7 550 519.3 600 526.7C650 534 700 549 750 547.3C800 545.7 850 527.3 875 518.2L900 509L900 601L875 601C850 601 800 601 750 601C700 601 650 601 600 601C550 601 500 601 450 601C400 601 350 601 300 601C250 601 200 601 150 601C100 601 50 601 25 601L0 601Z" fill="#bcaf98"></path><path d="M0 546L25 545.5C50 545 100 544 150 543.2C200 542.3 250 541.7 300 545.3C350 549 400 557 450 564.3C500 571.7 550 578.3 600 581.2C650 584 700 583 750 581C800 579 850 576 875 574.5L900 573L900 601L875 601C850 601 800 601 750 601C700 601 650 601 600 601C550 601 500 601 450 601C400 601 350 601 300 601C250 601 200 601 150 601C100 601 50 601 25 601L0 601Z" fill="#c7bca1"></path></svg>